<svg xmlns="http://www.w3.org/2000/svg" version="1.1" xmlns:xlink="http://www.w3.org/1999/xlink" xmlns:svgjs="http://svgjs.dev/svgjs" width="1440" height="560" preserveAspectRatio="none" viewBox="0 0 1440 560"><g mask="url(&quot;#SvgjsMask1006&quot;)" fill="none"><rect width="1440" height="560" x="0" y="0" fill="rgba(255, 255, 255, 1)"></rect><path d="M-88.38 370.02L-88.38 370.02" stroke="rgba(53, 53, 53, 1)" stroke-width="1.5"></path><path d="M-88.38 370.02L-64.28 532.46" stroke="rgba(53, 53, 53, 1)" stroke-width="1.5"></path><path d="M-88.38 370.02L91.86 397.05" stroke="rgba(53, 53, 53, 1)" stroke-width="1.5"></path><path d="M-88.38 370.02L47.83 537.55" stroke="rgba(53, 53, 53, 1)" stroke-width="1.5"></path><path d="M-88.38 370.02L231.62 383.02" stroke="rgba(53, 53, 53, 1)" stroke-width="1.5"></path><path d="M-64.28 532.46L-64.28 532.46" stroke="rgba(53, 53, 53, 1)" stroke-width="1.5"></path><path d="M-64.28 532.46L47.83 537.55" stroke="rgba(53, 53, 53, 1)" stroke-width="1.5"></path><path d="M-64.28 532.46L98.38 659.87" stroke="rgba(53, 53, 53, 1)" stroke-width="1.5"></path><path d="M-64.28 532.46L91.86 397.05" stroke="rgba(53, 53, 53, 1)" stroke-width="1.5"></path><path d="M-64.28 532.46L213.22 494.04" stroke="rgba(53, 53, 53, 1)" stroke-width="1.5"></path><path d="M-64.28 532.46L231.62 383.02" stroke="rgba(53, 53, 53, 1)" stroke-width="1.5"></path><path d="M91.86 397.05L91.86 397.05" stroke="rgba(53, 53, 53, 1)" stroke-width="1.5"></path><path d="M91.86 397.05L231.62 383.02" stroke="rgba(53, 53, 53, 1)" stroke-width="1.5"></path><path d="M91.86 397.05L47.83 537.55" stroke="rgba(53, 53, 53, 1)" stroke-width="1.5"></path><path d="M91.86 397.05L213.22 494.04" stroke="rgba(53, 53, 53, 1)" stroke-width="1.5"></path><path d="M47.83 537.55L47.83 537.55" stroke="rgba(53, 53, 53, 1)" stroke-width="1.5"></path><path d="M47.83 537.55L98.38 659.87" stroke="rgba(53, 53, 53, 1)" stroke-width="1.5"></path><path d="M47.83 537.55L213.22 494.04" stroke="rgba(53, 53, 53, 1)" stroke-width="1.5"></path><path d="M98.38 659.87L98.38 659.87" stroke="rgba(53, 53, 53, 1)" stroke-width="1.5"></path><path d="M98.38 659.87L259.75 655.09" stroke="rgba(53, 53, 53, 1)" stroke-width="1.5"></path><path d="M98.38 659.87L213.22 494.04" stroke="rgba(53, 53, 53, 1)" stroke-width="1.5"></path><path d="M98.38 659.87L91.86 397.05" stroke="rgba(53, 53, 53, 1)" stroke-width="1.5"></path><path d="M98.38 659.87L231.62 383.02" stroke="rgba(53, 53, 53, 1)" stroke-width="1.5"></path><path d="M231.62 383.02L231.62 383.02" stroke="rgba(53, 53, 53, 1)" stroke-width="1.5"></path><path d="M231.62 383.02L213.22 494.04" stroke="rgba(53, 53, 53, 1)" stroke-width="1.5"></path><path d="M231.62 383.02L359.1 371.94" stroke="rgba(53, 53, 53, 1)" stroke-width="1.5"></path><path d="M213.22 494.04L213.22 494.04" stroke="rgba(53, 53, 53, 1)" stroke-width="1.5"></path><path d="M213.22 494.04L259.75 655.09" stroke="rgba(53, 53, 53, 1)" stroke-width="1.5"></path><path d="M259.75 655.09L259.75 655.09" stroke="rgba(53, 53, 53, 1)" stroke-width="1.5"></path><path d="M259.75 655.09L403.87 559.65" stroke="rgba(53, 53, 53, 1)" stroke-width="1.5"></path><path d="M359.1 371.94L359.1 371.94" stroke="rgba(53, 53, 53, 1)" stroke-width="1.5"></path><path d="M359.1 371.94L213.22 494.04" stroke="rgba(53, 53, 53, 1)" stroke-width="1.5"></path><path d="M359.1 371.94L549.87 397.81" stroke="rgba(53, 53, 53, 1)" stroke-width="1.5"></path><path d="M359.1 371.94L403.87 559.65" stroke="rgba(53, 53, 53, 1)" stroke-width="1.5"></path><path d="M403.87 559.65L403.87 559.65" stroke="rgba(53, 53, 53, 1)" stroke-width="1.5"></path><path d="M403.87 559.65L531.17 508.74" stroke="rgba(53, 53, 53, 1)" stroke-width="1.5"></path><path d="M403.87 559.65L213.22 494.04" stroke="rgba(53, 53, 53, 1)" stroke-width="1.5"></path><path d="M403.87 559.65L549.87 397.81" stroke="rgba(53, 53, 53, 1)" stroke-width="1.5"></path><path d="M403.87 559.65L231.62 383.02" stroke="rgba(53, 53, 53, 1)" stroke-width="1.5"></path><path d="M549.87 397.81L549.87 397.81" stroke="rgba(53, 53, 53, 1)" stroke-width="1.5"></path><path d="M549.87 397.81L652.3 382.61" stroke="rgba(53, 53, 53, 1)" stroke-width="1.5"></path><path d="M549.87 397.81L531.17 508.74" stroke="rgba(53, 53, 53, 1)" stroke-width="1.5"></path><path d="M531.17 508.74L531.17 508.74" stroke="rgba(53, 53, 53, 1)" stroke-width="1.5"></path><path d="M680.47 231.52L680.47 231.52" stroke="rgba(53, 53, 53, 1)" stroke-width="1.5"></path><path d="M680.47 231.52L823.45 238.81" stroke="rgba(53, 53, 53, 1)" stroke-width="1.5"></path><path d="M680.47 231.52L652.3 382.61" stroke="rgba(53, 53, 53, 1)" stroke-width="1.5"></path><path d="M680.47 231.52L549.87 397.81" stroke="rgba(53, 53, 53, 1)" stroke-width="1.5"></path><path d="M680.47 231.52L940.28 248.11" stroke="rgba(53, 53, 53, 1)" stroke-width="1.5"></path><path d="M652.3 382.61L652.3 382.61" stroke="rgba(53, 53, 53, 1)" stroke-width="1.5"></path><path d="M652.3 382.61L705.66 540.23" stroke="rgba(53, 53, 53, 1)" stroke-width="1.5"></path><path d="M705.66 540.23L705.66 540.23" stroke="rgba(53, 53, 53, 1)" stroke-width="1.5"></path><path d="M705.66 540.23L687.66 643.71" stroke="rgba(53, 53, 53, 1)" stroke-width="1.5"></path><path d="M705.66 540.23L813.74 562.48" stroke="rgba(53, 53, 53, 1)" stroke-width="1.5"></path><path d="M705.66 540.23L531.17 508.74" stroke="rgba(53, 53, 53, 1)" stroke-width="1.5"></path><path d="M705.66 540.23L860.12 638.94" stroke="rgba(53, 53, 53, 1)" stroke-width="1.5"></path><path d="M687.66 643.71L687.66 643.71" stroke="rgba(53, 53, 53, 1)" stroke-width="1.5"></path><path d="M687.66 643.71L813.74 562.48" stroke="rgba(53, 53, 53, 1)" stroke-width="1.5"></path><path d="M687.66 643.71L860.12 638.94" stroke="rgba(53, 53, 53, 1)" stroke-width="1.5"></path><path d="M687.66 643.71L531.17 508.74" stroke="rgba(53, 53, 53, 1)" stroke-width="1.5"></path><path d="M823.45 238.81L823.45 238.81" stroke="rgba(53, 53, 53, 1)" stroke-width="1.5"></path><path d="M823.45 238.81L940.28 248.11" stroke="rgba(53, 53, 53, 1)" stroke-width="1.5"></path><path d="M813.74 562.48L813.74 562.48" stroke="rgba(53, 53, 53, 1)" stroke-width="1.5"></path><path d="M813.74 562.48L860.12 638.94" stroke="rgba(53, 53, 53, 1)" stroke-width="1.5"></path><path d="M860.12 638.94L860.12 638.94" stroke="rgba(53, 53, 53, 1)" stroke-width="1.5"></path><path d="M860.12 638.94L1004.81 676.28" stroke="rgba(53, 53, 53, 1)" stroke-width="1.5"></path><path d="M860.12 638.94L951.28 492.73" stroke="rgba(53, 53, 53, 1)" stroke-width="1.5"></path><path d="M860.12 638.94L1111.86 491.81" stroke="rgba(53, 53, 53, 1)" stroke-width="1.5"></path><path d="M960.12 -45.87L960.12 -45.87" stroke="rgba(53, 53, 53, 1)" stroke-width="1.5"></path><path d="M960.12 -45.87L962.29 50.32" stroke="rgba(53, 53, 53, 1)" stroke-width="1.5"></path><path d="M960.12 -45.87L1091.77 -46.05" stroke="rgba(53, 53, 53, 1)" stroke-width="1.5"></path><path d="M960.12 -45.87L1108.42 75.58" stroke="rgba(53, 53, 53, 1)" stroke-width="1.5"></path><path d="M960.12 -45.87L940.28 248.11" stroke="rgba(53, 53, 53, 1)" stroke-width="1.5"></path><path d="M960.12 -45.87L823.45 238.81" stroke="rgba(53, 53, 53, 1)" stroke-width="1.5"></path><path d="M962.29 50.32L962.29 50.32" stroke="rgba(53, 53, 53, 1)" stroke-width="1.5"></path><path d="M962.29 50.32L1108.42 75.58" stroke="rgba(53, 53, 53, 1)" stroke-width="1.5"></path><path d="M940.28 248.11L940.28 248.11" stroke="rgba(53, 53, 53, 1)" stroke-width="1.5"></path><path d="M940.28 248.11L962.46 357.16" stroke="rgba(53, 53, 53, 1)" stroke-width="1.5"></path><path d="M962.46 357.16L962.46 357.16" stroke="rgba(53, 53, 53, 1)" stroke-width="1.5"></path><path d="M962.46 357.16L951.28 492.73" stroke="rgba(53, 53, 53, 1)" stroke-width="1.5"></path><path d="M962.46 357.16L1104.42 363.12" stroke="rgba(53, 53, 53, 1)" stroke-width="1.5"></path><path d="M962.46 357.16L823.45 238.81" stroke="rgba(53, 53, 53, 1)" stroke-width="1.5"></path><path d="M962.46 357.16L1111.86 491.81" stroke="rgba(53, 53, 53, 1)" stroke-width="1.5"></path><path d="M962.46 357.16L813.74 562.48" stroke="rgba(53, 53, 53, 1)" stroke-width="1.5"></path><path d="M951.28 492.73L951.28 492.73" stroke="rgba(53, 53, 53, 1)" stroke-width="1.5"></path><path d="M951.28 492.73L813.74 562.48" stroke="rgba(53, 53, 53, 1)" stroke-width="1.5"></path><path d="M951.28 492.73L1111.86 491.81" stroke="rgba(53, 53, 53, 1)" stroke-width="1.5"></path><path d="M1004.81 676.28L1004.81 676.28" stroke="rgba(53, 53, 53, 1)" stroke-width="1.5"></path><path d="M1004.81 676.28L1161.16 693.65" stroke="rgba(53, 53, 53, 1)" stroke-width="1.5"></path><path d="M1091.77 -46.05L1091.77 -46.05" stroke="rgba(53, 53, 53, 1)" stroke-width="1.5"></path><path d="M1091.77 -46.05L1108.42 75.58" stroke="rgba(53, 53, 53, 1)" stroke-width="1.5"></path><path d="M1091.77 -46.05L962.29 50.32" stroke="rgba(53, 53, 53, 1)" stroke-width="1.5"></path><path d="M1091.77 -46.05L1275.99 -65.48" stroke="rgba(53, 53, 53, 1)" stroke-width="1.5"></path><path d="M1108.42 75.58L1108.42 75.58" stroke="rgba(53, 53, 53, 1)" stroke-width="1.5"></path><path d="M1108.42 75.58L1253.31 91.69" stroke="rgba(53, 53, 53, 1)" stroke-width="1.5"></path><path d="M1104.42 363.12L1104.42 363.12" stroke="rgba(53, 53, 53, 1)" stroke-width="1.5"></path><path d="M1104.42 363.12L1111.86 491.81" stroke="rgba(53, 53, 53, 1)" stroke-width="1.5"></path><path d="M1104.42 363.12L1250.46 386.51" stroke="rgba(53, 53, 53, 1)" stroke-width="1.5"></path><path d="M1104.42 363.12L940.28 248.11" stroke="rgba(53, 53, 53, 1)" stroke-width="1.5"></path><path d="M1104.42 363.12L951.28 492.73" stroke="rgba(53, 53, 53, 1)" stroke-width="1.5"></path><path d="M1111.86 491.81L1111.86 491.81" stroke="rgba(53, 53, 53, 1)" stroke-width="1.5"></path><path d="M1161.16 693.65L1161.16 693.65" stroke="rgba(53, 53, 53, 1)" stroke-width="1.5"></path><path d="M1161.16 693.65L1111.86 491.81" stroke="rgba(53, 53, 53, 1)" stroke-width="1.5"></path><path d="M1161.16 693.65L1276.25 517.89" stroke="rgba(53, 53, 53, 1)" stroke-width="1.5"></path><path d="M1161.16 693.65L1393.24 681.69" stroke="rgba(53, 53, 53, 1)" stroke-width="1.5"></path><path d="M1161.16 693.65L951.28 492.73" stroke="rgba(53, 53, 53, 1)" stroke-width="1.5"></path><path d="M1275.99 -65.48L1275.99 -65.48" stroke="rgba(53, 53, 53, 1)" stroke-width="1.5"></path><path d="M1275.99 -65.48L1390.31 42.1" stroke="rgba(53, 53, 53, 1)" stroke-width="1.5"></path><path d="M1275.99 -65.48L1253.31 91.69" stroke="rgba(53, 53, 53, 1)" stroke-width="1.5"></path><path d="M1253.31 91.69L1253.31 91.69" stroke="rgba(53, 53, 53, 1)" stroke-width="1.5"></path><path d="M1253.31 91.69L1264.82 206.67" stroke="rgba(53, 53, 53, 1)" stroke-width="1.5"></path><path d="M1253.31 91.69L1390.31 42.1" stroke="rgba(53, 53, 53, 1)" stroke-width="1.5"></path><path d="M1264.82 206.67L1264.82 206.67" stroke="rgba(53, 53, 53, 1)" stroke-width="1.5"></path><path d="M1264.82 206.67L1250.46 386.51" stroke="rgba(53, 53, 53, 1)" stroke-width="1.5"></path><path d="M1250.46 386.51L1250.46 386.51" stroke="rgba(53, 53, 53, 1)" stroke-width="1.5"></path><path d="M1250.46 386.51L1276.25 517.89" stroke="rgba(53, 53, 53, 1)" stroke-width="1.5"></path><path d="M1250.46 386.51L1393.92 410.67" stroke="rgba(53, 53, 53, 1)" stroke-width="1.5"></path><path d="M1276.25 517.89L1276.25 517.89" stroke="rgba(53, 53, 53, 1)" stroke-width="1.5"></path><path d="M1276.25 517.89L1404.66 493.39" stroke="rgba(53, 53, 53, 1)" stroke-width="1.5"></path><path d="M1276.25 517.89L1393.92 410.67" stroke="rgba(53, 53, 53, 1)" stroke-width="1.5"></path><path d="M1276.25 517.89L1111.86 491.81" stroke="rgba(53, 53, 53, 1)" stroke-width="1.5"></path><path d="M1449.05 -76.82L1449.05 -76.82" stroke="rgba(53, 53, 53, 1)" stroke-width="1.5"></path><path d="M1449.05 -76.82L1578.57 -60.01" stroke="rgba(53, 53, 53, 1)" stroke-width="1.5"></path><path d="M1449.05 -76.82L1390.31 42.1" stroke="rgba(53, 53, 53, 1)" stroke-width="1.5"></path><path d="M1449.05 -76.82L1275.99 -65.48" stroke="rgba(53, 53, 53, 1)" stroke-width="1.5"></path><path d="M1449.05 -76.82L1600.97 70.43" stroke="rgba(53, 53, 53, 1)" stroke-width="1.5"></path><path d="M1449.05 -76.82L1253.31 91.69" stroke="rgba(53, 53, 53, 1)" stroke-width="1.5"></path><path d="M1449.05 -76.82L1448.46 213.53" stroke="rgba(53, 53, 53, 1)" stroke-width="1.5"></path><path d="M1390.31 42.1L1390.31 42.1" stroke="rgba(53, 53, 53, 1)" stroke-width="1.5"></path><path d="M1448.46 213.53L1448.46 213.53" stroke="rgba(53, 53, 53, 1)" stroke-width="1.5"></path><path d="M1448.46 213.53L1578.39 224.69" stroke="rgba(53, 53, 53, 1)" stroke-width="1.5"></path><path d="M1448.46 213.53L1390.31 42.1" stroke="rgba(53, 53, 53, 1)" stroke-width="1.5"></path><path d="M1393.92 410.67L1393.92 410.67" stroke="rgba(53, 53, 53, 1)" stroke-width="1.5"></path><path d="M1393.92 410.67L1404.66 493.39" stroke="rgba(53, 53, 53, 1)" stroke-width="1.5"></path><path d="M1404.66 493.39L1404.66 493.39" stroke="rgba(53, 53, 53, 1)" stroke-width="1.5"></path><path d="M1393.24 681.69L1393.24 681.69" stroke="rgba(53, 53, 53, 1)" stroke-width="1.5"></path><path d="M1393.24 681.69L1562.29 692.45" stroke="rgba(53, 53, 53, 1)" stroke-width="1.5"></path><path d="M1393.24 681.69L1404.66 493.39" stroke="rgba(53, 53, 53, 1)" stroke-width="1.5"></path><path d="M1393.24 681.69L1276.25 517.89" stroke="rgba(53, 53, 53, 1)" stroke-width="1.5"></path><path d="M1578.57 -60.01L1578.57 -60.01" stroke="rgba(53, 53, 53, 1)" stroke-width="1.5"></path><path d="M1578.57 -60.01L1600.97 70.43" stroke="rgba(53, 53, 53, 1)" stroke-width="1.5"></path><path d="M1578.57 -60.01L1390.31 42.1" stroke="rgba(53, 53, 53, 1)" stroke-width="1.5"></path><path d="M1600.97 70.43L1600.97 70.43" stroke="rgba(53, 53, 53, 1)" stroke-width="1.5"></path><path d="M1578.39 224.69L1578.39 224.69" stroke="rgba(53, 53, 53, 1)" stroke-width="1.5"></path><path d="M1578.39 224.69L1606.58 359.37" stroke="rgba(53, 53, 53, 1)" stroke-width="1.5"></path><path d="M1578.39 224.69L1600.97 70.43" stroke="rgba(53, 53, 53, 1)" stroke-width="1.5"></path><path d="M1606.58 359.37L1606.58 359.37" stroke="rgba(53, 53, 53, 1)" stroke-width="1.5"></path><path d="M1606.58 359.37L1593.59 517.09" stroke="rgba(53, 53, 53, 1)" stroke-width="1.5"></path><path d="M1606.58 359.37L1448.46 213.53" stroke="rgba(53, 53, 53, 1)" stroke-width="1.5"></path><path d="M1606.58 359.37L1393.92 410.67" stroke="rgba(53, 53, 53, 1)" stroke-width="1.5"></path><path d="M1606.58 359.37L1404.66 493.39" stroke="rgba(53, 53, 53, 1)" stroke-width="1.5"></path><path d="M1593.59 517.09L1593.59 517.09" stroke="rgba(53, 53, 53, 1)" stroke-width="1.5"></path><path d="M1593.59 517.09L1562.29 692.45" stroke="rgba(53, 53, 53, 1)" stroke-width="1.5"></path><path d="M1593.59 517.09L1404.66 493.39" stroke="rgba(53, 53, 53, 1)" stroke-width="1.5"></path><path d="M1593.59 517.09L1393.92 410.67" stroke="rgba(53, 53, 53, 1)" stroke-width="1.5"></path><path d="M1593.59 517.09L1393.24 681.69" stroke="rgba(53, 53, 53, 1)" stroke-width="1.5"></path><path d="M1562.29 692.45L1562.29 692.45" stroke="rgba(53, 53, 53, 1)" stroke-width="1.5"></path><path d="M1562.29 692.45L1404.66 493.39" stroke="rgba(53, 53, 53, 1)" stroke-width="1.5"></path><path d="M1562.29 692.45L1393.92 410.67" stroke="rgba(53, 53, 53, 1)" stroke-width="1.5"></path><path d="M1562.29 692.45L1276.25 517.89" stroke="rgba(53, 53, 53, 1)" stroke-width="1.5"></path><path d="M1562.29 692.45L1606.58 359.37" stroke="rgba(53, 53, 53, 1)" stroke-width="1.5"></path><circle r="5" cx="-88.38" cy="370.02" fill="rgba(53, 53, 53, 1)"></circle><circle r="5" cx="-64.28" cy="532.46" fill="rgba(53, 53, 53, 1)"></circle><circle r="5" cx="91.86" cy="397.05" fill="rgba(53, 53, 53, 1)"></circle><circle r="5" cx="47.83" cy="537.55" fill="rgba(53, 53, 53, 1)"></circle><circle r="5" cx="98.38" cy="659.87" fill="rgba(53, 53, 53, 1)"></circle><circle r="5" cx="231.62" cy="383.02" fill="rgba(53, 53, 53, 1)"></circle><circle r="5" cx="213.22" cy="494.04" fill="rgba(53, 53, 53, 1)"></circle><circle r="5" cx="259.75" cy="655.09" fill="rgba(53, 53, 53, 1)"></circle><circle r="5" cx="359.1" cy="371.94" fill="rgba(53, 53, 53, 1)"></circle><circle r="5" cx="403.87" cy="559.65" fill="rgba(53, 53, 53, 1)"></circle><circle r="5" cx="549.87" cy="397.81" fill="rgba(53, 53, 53, 1)"></circle><circle r="5" cx="531.17" cy="508.74" fill="rgba(53, 53, 53, 1)"></circle><circle r="5" cx="680.47" cy="231.52" fill="rgba(53, 53, 53, 1)"></circle><circle r="5" cx="652.3" cy="382.61" fill="rgba(53, 53, 53, 1)"></circle><circle r="5" cx="705.66" cy="540.23" fill="rgba(53, 53, 53, 1)"></circle><circle r="5" cx="687.66" cy="643.71" fill="rgba(53, 53, 53, 1)"></circle><circle r="5" cx="823.45" cy="238.81" fill="rgba(53, 53, 53, 1)"></circle><circle r="5" cx="813.74" cy="562.48" fill="rgba(53, 53, 53, 1)"></circle><circle r="5" cx="860.12" cy="638.94" fill="rgba(53, 53, 53, 1)"></circle><circle r="5" cx="960.12" cy="-45.87" fill="rgba(53, 53, 53, 1)"></circle><circle r="5" cx="962.29" cy="50.32" fill="rgba(53, 53, 53, 1)"></circle><circle r="5" cx="940.28" cy="248.11" fill="rgba(53, 53, 53, 1)"></circle><circle r="5" cx="962.46" cy="357.16" fill="rgba(53, 53, 53, 1)"></circle><circle r="5" cx="951.28" cy="492.73" fill="rgba(53, 53, 53, 1)"></circle><circle r="5" cx="1004.81" cy="676.28" fill="rgba(53, 53, 53, 1)"></circle><circle r="5" cx="1091.77" cy="-46.05" fill="rgba(53, 53, 53, 1)"></circle><circle r="5" cx="1108.42" cy="75.58" fill="rgba(53, 53, 53, 1)"></circle><circle r="5" cx="1104.42" cy="363.12" fill="rgba(53, 53, 53, 1)"></circle><circle r="5" cx="1111.86" cy="491.81" fill="rgba(53, 53, 53, 1)"></circle><circle r="5" cx="1161.16" cy="693.65" fill="rgba(53, 53, 53, 1)"></circle><circle r="5" cx="1275.99" cy="-65.48" fill="rgba(53, 53, 53, 1)"></circle><circle r="5" cx="1253.31" cy="91.69" fill="rgba(53, 53, 53, 1)"></circle><circle r="5" cx="1264.82" cy="206.67" fill="rgba(53, 53, 53, 1)"></circle><circle r="5" cx="1250.46" cy="386.51" fill="rgba(53, 53, 53, 1)"></circle><circle r="5" cx="1276.25" cy="517.89" fill="rgba(53, 53, 53, 1)"></circle><circle r="5" cx="1449.05" cy="-76.82" fill="rgba(53, 53, 53, 1)"></circle><circle r="5" cx="1390.31" cy="42.1" fill="rgba(53, 53, 53, 1)"></circle><circle r="5" cx="1448.46" cy="213.53" fill="rgba(53, 53, 53, 1)"></circle><circle r="5" cx="1393.92" cy="410.67" fill="rgba(53, 53, 53, 1)"></circle><circle r="5" cx="1404.66" cy="493.39" fill="rgba(53, 53, 53, 1)"></circle><circle r="5" cx="1393.24" cy="681.69" fill="rgba(53, 53, 53, 1)"></circle><circle r="5" cx="1578.57" cy="-60.01" fill="rgba(53, 53, 53, 1)"></circle><circle r="5" cx="1600.97" cy="70.43" fill="rgba(53, 53, 53, 1)"></circle><circle r="5" cx="1578.39" cy="224.69" fill="rgba(53, 53, 53, 1)"></circle><circle r="5" cx="1606.58" cy="359.37" fill="rgba(53, 53, 53, 1)"></circle><circle r="5" cx="1593.59" cy="517.09" fill="rgba(53, 53, 53, 1)"></circle><circle r="5" cx="1562.29" cy="692.45" fill="rgba(53, 53, 53, 1)"></circle><path d="M656.39 511.67L656.39 511.67" stroke="hsl(0, 0%, 89.2%)" stroke-width="1.5"></path><path d="M656.39 511.67L558.27 557.78" stroke="hsl(0, 0%, 89.2%)" stroke-width="1.5"></path><path d="M656.39 511.67L825.27 522.44" stroke="hsl(0, 0%, 89.2%)" stroke-width="1.5"></path><path d="M1132.69 377.12L1132.69 377.12" stroke="hsl(0, 0%, 89.2%)" stroke-width="1.5"></path><path d="M1132.69 377.12L1256.89 366.36" stroke="hsl(0, 0%, 89.2%)" stroke-width="1.5"></path><path d="M1132.69 377.12L1001.92 366.49" stroke="hsl(0, 0%, 89.2%)" stroke-width="1.5"></path><path d="M1308.83 -61.57L1308.83 -61.57" stroke="hsl(0, 0%, 89.2%)" stroke-width="1.5"></path><path d="M1308.83 -61.57L1426.97 -64.86" stroke="hsl(0, 0%, 89.2%)" stroke-width="1.5"></path><path d="M1308.83 -61.57L1242.13 74.98" stroke="hsl(0, 0%, 89.2%)" stroke-width="1.5"></path><path d="M1308.83 -61.57L1461.32 43.01" stroke="hsl(0, 0%, 89.2%)" stroke-width="1.5"></path><path d="M1308.83 -61.57L1300.38 205.95" stroke="hsl(0, 0%, 89.2%)" stroke-width="1.5"></path><path d="M1242.13 74.98L1242.13 74.98" stroke="hsl(0, 0%, 89.2%)" stroke-width="1.5"></path><path d="M1242.13 74.98L1300.38 205.95" stroke="hsl(0, 0%, 89.2%)" stroke-width="1.5"></path><path d="M1242.13 74.98L1461.32 43.01" stroke="hsl(0, 0%, 89.2%)" stroke-width="1.5"></path><path d="M1272.39 669.59L1272.39 669.59" stroke="hsl(0, 0%, 89.2%)" stroke-width="1.5"></path><path d="M1272.39 669.59L1139.18 702.94" stroke="hsl(0, 0%, 89.2%)" stroke-width="1.5"></path><path d="M1272.39 669.59L1259.55 531.68" stroke="hsl(0, 0%, 89.2%)" stroke-width="1.5"></path><path d="M1272.39 669.59L1441.88 712.31" stroke="hsl(0, 0%, 89.2%)" stroke-width="1.5"></path><path d="M1272.39 669.59L1119.87 546.51" stroke="hsl(0, 0%, 89.2%)" stroke-width="1.5"></path><path d="M1272.39 669.59L1413.9 507.89" stroke="hsl(0, 0%, 89.2%)" stroke-width="1.5"></path><path d="M1272.39 669.59L1256.89 366.36" stroke="hsl(0, 0%, 89.2%)" stroke-width="1.5"></path><path d="M1411.62 235.09L1411.62 235.09" stroke="hsl(0, 0%, 89.2%)" stroke-width="1.5"></path><path d="M1411.62 235.09L1300.38 205.95" stroke="hsl(0, 0%, 89.2%)" stroke-width="1.5"></path><path d="M1411.62 235.09L1412.82 352.76" stroke="hsl(0, 0%, 89.2%)" stroke-width="1.5"></path><path d="M1411.62 235.09L1572.61 211.03" stroke="hsl(0, 0%, 89.2%)" stroke-width="1.5"></path><path d="M1411.62 235.09L1461.32 43.01" stroke="hsl(0, 0%, 89.2%)" stroke-width="1.5"></path><path d="M1411.62 235.09L1256.89 366.36" stroke="hsl(0, 0%, 89.2%)" stroke-width="1.5"></path><path d="M1602.68 561.1L1602.68 561.1" stroke="hsl(0, 0%, 89.2%)" stroke-width="1.5"></path><path d="M1602.68 561.1L1596.07 653.74" stroke="hsl(0, 0%, 89.2%)" stroke-width="1.5"></path><path d="M1602.68 561.1L1573.94 408.14" stroke="hsl(0, 0%, 89.2%)" stroke-width="1.5"></path><path d="M1602.68 561.1L1413.9 507.89" stroke="hsl(0, 0%, 89.2%)" stroke-width="1.5"></path><path d="M-71.37 561.42L-71.37 561.42" stroke="hsl(0, 0%, 89.2%)" stroke-width="1.5"></path><path d="M-71.37 561.42L-85.74 684.25" stroke="hsl(0, 0%, 89.2%)" stroke-width="1.5"></path><path d="M-71.37 561.42L72.25 700.86" stroke="hsl(0, 0%, 89.2%)" stroke-width="1.5"></path><path d="M-85.74 684.25L-85.74 684.25" stroke="hsl(0, 0%, 89.2%)" stroke-width="1.5"></path><path d="M-85.74 684.25L72.25 700.86" stroke="hsl(0, 0%, 89.2%)" stroke-width="1.5"></path><path d="M-85.74 684.25L194.92 683.49" stroke="hsl(0, 0%, 89.2%)" stroke-width="1.5"></path><path d="M-85.74 684.25L246.38 506.29" stroke="hsl(0, 0%, 89.2%)" stroke-width="1.5"></path><path d="M-85.74 684.25L361.94 691.6" stroke="hsl(0, 0%, 89.2%)" stroke-width="1.5"></path><path d="M72.25 700.86L72.25 700.86" stroke="hsl(0, 0%, 89.2%)" stroke-width="1.5"></path><path d="M72.25 700.86L194.92 683.49" stroke="hsl(0, 0%, 89.2%)" stroke-width="1.5"></path><path d="M246.38 506.29L246.38 506.29" stroke="hsl(0, 0%, 89.2%)" stroke-width="1.5"></path><path d="M246.38 506.29L360.76 499.35" stroke="hsl(0, 0%, 89.2%)" stroke-width="1.5"></path><path d="M246.38 506.29L194.92 683.49" stroke="hsl(0, 0%, 89.2%)" stroke-width="1.5"></path><path d="M246.38 506.29L361.94 691.6" stroke="hsl(0, 0%, 89.2%)" stroke-width="1.5"></path><path d="M246.38 506.29L72.25 700.86" stroke="hsl(0, 0%, 89.2%)" stroke-width="1.5"></path><path d="M246.38 506.29L558.27 557.78" stroke="hsl(0, 0%, 89.2%)" stroke-width="1.5"></path><path d="M246.38 506.29L-71.37 561.42" stroke="hsl(0, 0%, 89.2%)" stroke-width="1.5"></path><path d="M194.92 683.49L194.92 683.49" stroke="hsl(0, 0%, 89.2%)" stroke-width="1.5"></path><path d="M194.92 683.49L361.94 691.6" stroke="hsl(0, 0%, 89.2%)" stroke-width="1.5"></path><path d="M194.92 683.49L360.76 499.35" stroke="hsl(0, 0%, 89.2%)" stroke-width="1.5"></path><path d="M194.92 683.49L-71.37 561.42" stroke="hsl(0, 0%, 89.2%)" stroke-width="1.5"></path><path d="M360.76 499.35L360.76 499.35" stroke="hsl(0, 0%, 89.2%)" stroke-width="1.5"></path><path d="M360.76 499.35L361.94 691.6" stroke="hsl(0, 0%, 89.2%)" stroke-width="1.5"></path><path d="M360.76 499.35L558.27 557.78" stroke="hsl(0, 0%, 89.2%)" stroke-width="1.5"></path><path d="M360.76 499.35L538.49 698.82" stroke="hsl(0, 0%, 89.2%)" stroke-width="1.5"></path><path d="M360.76 499.35L656.39 511.67" stroke="hsl(0, 0%, 89.2%)" stroke-width="1.5"></path><path d="M361.94 691.6L361.94 691.6" stroke="hsl(0, 0%, 89.2%)" stroke-width="1.5"></path><path d="M361.94 691.6L538.49 698.82" stroke="hsl(0, 0%, 89.2%)" stroke-width="1.5"></path><path d="M558.27 557.78L558.27 557.78" stroke="hsl(0, 0%, 89.2%)" stroke-width="1.5"></path><path d="M558.27 557.78L538.49 698.82" stroke="hsl(0, 0%, 89.2%)" stroke-width="1.5"></path><path d="M558.27 557.78L707.63 697.02" stroke="hsl(0, 0%, 89.2%)" stroke-width="1.5"></path><path d="M558.27 557.78L361.94 691.6" stroke="hsl(0, 0%, 89.2%)" stroke-width="1.5"></path><path d="M558.27 557.78L825.27 522.44" stroke="hsl(0, 0%, 89.2%)" stroke-width="1.5"></path><path d="M538.49 698.82L538.49 698.82" stroke="hsl(0, 0%, 89.2%)" stroke-width="1.5"></path><path d="M538.49 698.82L707.63 697.02" stroke="hsl(0, 0%, 89.2%)" stroke-width="1.5"></path><path d="M707.63 697.02L707.63 697.02" stroke="hsl(0, 0%, 89.2%)" stroke-width="1.5"></path><path d="M707.63 697.02L860.12 663.35" stroke="hsl(0, 0%, 89.2%)" stroke-width="1.5"></path><path d="M707.63 697.02L656.39 511.67" stroke="hsl(0, 0%, 89.2%)" stroke-width="1.5"></path><path d="M831.24 380.35L831.24 380.35" stroke="hsl(0, 0%, 89.2%)" stroke-width="1.5"></path><path d="M831.24 380.35L825.27 522.44" stroke="hsl(0, 0%, 89.2%)" stroke-width="1.5"></path><path d="M831.24 380.35L1001.92 366.49" stroke="hsl(0, 0%, 89.2%)" stroke-width="1.5"></path><path d="M831.24 380.35L961.78 504.74" stroke="hsl(0, 0%, 89.2%)" stroke-width="1.5"></path><path d="M831.24 380.35L656.39 511.67" stroke="hsl(0, 0%, 89.2%)" stroke-width="1.5"></path><path d="M831.24 380.35L860.12 663.35" stroke="hsl(0, 0%, 89.2%)" stroke-width="1.5"></path><path d="M831.24 380.35L1089.24 243.21" stroke="hsl(0, 0%, 89.2%)" stroke-width="1.5"></path><path d="M825.27 522.44L825.27 522.44" stroke="hsl(0, 0%, 89.2%)" stroke-width="1.5"></path><path d="M825.27 522.44L961.78 504.74" stroke="hsl(0, 0%, 89.2%)" stroke-width="1.5"></path><path d="M825.27 522.44L860.12 663.35" stroke="hsl(0, 0%, 89.2%)" stroke-width="1.5"></path><path d="M825.27 522.44L707.63 697.02" stroke="hsl(0, 0%, 89.2%)" stroke-width="1.5"></path><path d="M825.27 522.44L1001.92 366.49" stroke="hsl(0, 0%, 89.2%)" stroke-width="1.5"></path><path d="M860.12 663.35L860.12 663.35" stroke="hsl(0, 0%, 89.2%)" stroke-width="1.5"></path><path d="M860.12 663.35L961.78 504.74" stroke="hsl(0, 0%, 89.2%)" stroke-width="1.5"></path><path d="M860.12 663.35L656.39 511.67" stroke="hsl(0, 0%, 89.2%)" stroke-width="1.5"></path><path d="M860.12 663.35L1139.18 702.94" stroke="hsl(0, 0%, 89.2%)" stroke-width="1.5"></path><path d="M1001.92 366.49L1001.92 366.49" stroke="hsl(0, 0%, 89.2%)" stroke-width="1.5"></path><path d="M1001.92 366.49L961.78 504.74" stroke="hsl(0, 0%, 89.2%)" stroke-width="1.5"></path><path d="M961.78 504.74L961.78 504.74" stroke="hsl(0, 0%, 89.2%)" stroke-width="1.5"></path><path d="M961.78 504.74L1119.87 546.51" stroke="hsl(0, 0%, 89.2%)" stroke-width="1.5"></path><path d="M1089.24 243.21L1089.24 243.21" stroke="hsl(0, 0%, 89.2%)" stroke-width="1.5"></path><path d="M1089.24 243.21L1132.69 377.12" stroke="hsl(0, 0%, 89.2%)" stroke-width="1.5"></path><path d="M1089.24 243.21L1001.92 366.49" stroke="hsl(0, 0%, 89.2%)" stroke-width="1.5"></path><path d="M1119.87 546.51L1119.87 546.51" stroke="hsl(0, 0%, 89.2%)" stroke-width="1.5"></path><path d="M1119.87 546.51L1259.55 531.68" stroke="hsl(0, 0%, 89.2%)" stroke-width="1.5"></path><path d="M1119.87 546.51L1139.18 702.94" stroke="hsl(0, 0%, 89.2%)" stroke-width="1.5"></path><path d="M1119.87 546.51L1132.69 377.12" stroke="hsl(0, 0%, 89.2%)" stroke-width="1.5"></path><path d="M1119.87 546.51L1001.92 366.49" stroke="hsl(0, 0%, 89.2%)" stroke-width="1.5"></path><path d="M1139.18 702.94L1139.18 702.94" stroke="hsl(0, 0%, 89.2%)" stroke-width="1.5"></path><path d="M1300.38 205.95L1300.38 205.95" stroke="hsl(0, 0%, 89.2%)" stroke-width="1.5"></path><path d="M1300.38 205.95L1256.89 366.36" stroke="hsl(0, 0%, 89.2%)" stroke-width="1.5"></path><path d="M1300.38 205.95L1412.82 352.76" stroke="hsl(0, 0%, 89.2%)" stroke-width="1.5"></path><path d="M1300.38 205.95L1089.24 243.21" stroke="hsl(0, 0%, 89.2%)" stroke-width="1.5"></path><path d="M1300.38 205.95L1461.32 43.01" stroke="hsl(0, 0%, 89.2%)" stroke-width="1.5"></path><path d="M1256.89 366.36L1256.89 366.36" stroke="hsl(0, 0%, 89.2%)" stroke-width="1.5"></path><path d="M1256.89 366.36L1412.82 352.76" stroke="hsl(0, 0%, 89.2%)" stroke-width="1.5"></path><path d="M1256.89 366.36L1259.55 531.68" stroke="hsl(0, 0%, 89.2%)" stroke-width="1.5"></path><path d="M1259.55 531.68L1259.55 531.68" stroke="hsl(0, 0%, 89.2%)" stroke-width="1.5"></path><path d="M1426.97 -64.86L1426.97 -64.86" stroke="hsl(0, 0%, 89.2%)" stroke-width="1.5"></path><path d="M1426.97 -64.86L1461.32 43.01" stroke="hsl(0, 0%, 89.2%)" stroke-width="1.5"></path><path d="M1426.97 -64.86L1604.91 -91.98" stroke="hsl(0, 0%, 89.2%)" stroke-width="1.5"></path><path d="M1426.97 -64.86L1566.59 50.41" stroke="hsl(0, 0%, 89.2%)" stroke-width="1.5"></path><path d="M1426.97 -64.86L1242.13 74.98" stroke="hsl(0, 0%, 89.2%)" stroke-width="1.5"></path><path d="M1426.97 -64.86L1300.38 205.95" stroke="hsl(0, 0%, 89.2%)" stroke-width="1.5"></path><path d="M1461.32 43.01L1461.32 43.01" stroke="hsl(0, 0%, 89.2%)" stroke-width="1.5"></path><path d="M1461.32 43.01L1566.59 50.41" stroke="hsl(0, 0%, 89.2%)" stroke-width="1.5"></path><path d="M1412.82 352.76L1412.82 352.76" stroke="hsl(0, 0%, 89.2%)" stroke-width="1.5"></path><path d="M1412.82 352.76L1413.9 507.89" stroke="hsl(0, 0%, 89.2%)" stroke-width="1.5"></path><path d="M1413.9 507.89L1413.9 507.89" stroke="hsl(0, 0%, 89.2%)" stroke-width="1.5"></path><path d="M1413.9 507.89L1259.55 531.68" stroke="hsl(0, 0%, 89.2%)" stroke-width="1.5"></path><path d="M1413.9 507.89L1573.94 408.14" stroke="hsl(0, 0%, 89.2%)" stroke-width="1.5"></path><path d="M1441.88 712.31L1441.88 712.31" stroke="hsl(0, 0%, 89.2%)" stroke-width="1.5"></path><path d="M1441.88 712.31L1596.07 653.74" stroke="hsl(0, 0%, 89.2%)" stroke-width="1.5"></path><path d="M1604.91 -91.98L1604.91 -91.98" stroke="hsl(0, 0%, 89.2%)" stroke-width="1.5"></path><path d="M1604.91 -91.98L1566.59 50.41" stroke="hsl(0, 0%, 89.2%)" stroke-width="1.5"></path><path d="M1604.91 -91.98L1461.32 43.01" stroke="hsl(0, 0%, 89.2%)" stroke-width="1.5"></path><path d="M1604.91 -91.98L1308.83 -61.57" stroke="hsl(0, 0%, 89.2%)" stroke-width="1.5"></path><path d="M1604.91 -91.98L1572.61 211.03" stroke="hsl(0, 0%, 89.2%)" stroke-width="1.5"></path><path d="M1566.59 50.41L1566.59 50.41" stroke="hsl(0, 0%, 89.2%)" stroke-width="1.5"></path><path d="M1566.59 50.41L1572.61 211.03" stroke="hsl(0, 0%, 89.2%)" stroke-width="1.5"></path><path d="M1572.61 211.03L1572.61 211.03" stroke="hsl(0, 0%, 89.2%)" stroke-width="1.5"></path><path d="M1573.94 408.14L1573.94 408.14" stroke="hsl(0, 0%, 89.2%)" stroke-width="1.5"></path><path d="M1573.94 408.14L1412.82 352.76" stroke="hsl(0, 0%, 89.2%)" stroke-width="1.5"></path><path d="M1596.07 653.74L1596.07 653.74" stroke="hsl(0, 0%, 89.2%)" stroke-width="1.5"></path><path d="M1596.07 653.74L1413.9 507.89" stroke="hsl(0, 0%, 89.2%)" stroke-width="1.5"></path><path d="M1596.07 653.74L1573.94 408.14" stroke="hsl(0, 0%, 89.2%)" stroke-width="1.5"></path><circle r="25" cx="656.39" cy="511.67" fill="url(&quot;#SvgjsRadialGradient1007&quot;)"></circle><circle r="25" cx="1132.69" cy="377.12" fill="url(&quot;#SvgjsRadialGradient1007&quot;)"></circle><circle r="25" cx="1308.83" cy="-61.57" fill="url(&quot;#SvgjsRadialGradient1007&quot;)"></circle><circle r="25" cx="1242.13" cy="74.98" fill="url(&quot;#SvgjsRadialGradient1007&quot;)"></circle><circle r="25" cx="1272.39" cy="669.59" fill="url(&quot;#SvgjsRadialGradient1007&quot;)"></circle><circle r="25" cx="1411.62" cy="235.09" fill="url(&quot;#SvgjsRadialGradient1007&quot;)"></circle><circle r="25" cx="1602.68" cy="561.1" fill="url(&quot;#SvgjsRadialGradient1007&quot;)"></circle><circle r="5" cx="-71.37" cy="561.42" fill="#d7d7d7"></circle><circle r="5" cx="-85.74" cy="684.25" fill="#d7d7d7"></circle><circle r="5" cx="72.25" cy="700.86" fill="#d7d7d7"></circle><circle r="5" cx="246.38" cy="506.29" fill="#d7d7d7"></circle><circle r="5" cx="194.92" cy="683.49" fill="#d7d7d7"></circle><circle r="5" cx="360.76" cy="499.35" fill="#d7d7d7"></circle><circle r="5" cx="361.94" cy="691.6" fill="#d7d7d7"></circle><circle r="5" cx="558.27" cy="557.78" fill="#d7d7d7"></circle><circle r="5" cx="538.49" cy="698.82" fill="#d7d7d7"></circle><circle r="5" cx="707.63" cy="697.02" fill="#d7d7d7"></circle><circle r="5" cx="831.24" cy="380.35" fill="#d7d7d7"></circle><circle r="5" cx="825.27" cy="522.44" fill="#d7d7d7"></circle><circle r="5" cx="860.12" cy="663.35" fill="#d7d7d7"></circle><circle r="5" cx="1001.92" cy="366.49" fill="#d7d7d7"></circle><circle r="5" cx="961.78" cy="504.74" fill="#d7d7d7"></circle><circle r="5" cx="1089.24" cy="243.21" fill="#d7d7d7"></circle><circle r="5" cx="1119.87" cy="546.51" fill="#d7d7d7"></circle><circle r="5" cx="1139.18" cy="702.94" fill="#d7d7d7"></circle><circle r="5" cx="1300.38" cy="205.95" fill="#d7d7d7"></circle><circle r="5" cx="1256.89" cy="366.36" fill="#d7d7d7"></circle><circle r="5" cx="1259.55" cy="531.68" fill="#d7d7d7"></circle><circle r="5" cx="1426.97" cy="-64.86" fill="#d7d7d7"></circle><circle r="5" cx="1461.32" cy="43.01" fill="#d7d7d7"></circle><circle r="5" cx="1412.82" cy="352.76" fill="#d7d7d7"></circle><circle r="5" cx="1413.9" cy="507.89" fill="#d7d7d7"></circle><circle r="5" cx="1441.88" cy="712.31" fill="#d7d7d7"></circle><circle r="5" cx="1604.91" cy="-91.98" fill="#d7d7d7"></circle><circle r="5" cx="1566.59" cy="50.41" fill="#d7d7d7"></circle><circle r="5" cx="1572.61" cy="211.03" fill="#d7d7d7"></circle><circle r="5" cx="1573.94" cy="408.14" fill="#d7d7d7"></circle><circle r="5" cx="1596.07" cy="653.74" fill="#d7d7d7"></circle></g><defs><mask id="SvgjsMask1006"><rect width="1440" height="560" fill="#ffffff"></rect></mask><radialGradient id="SvgjsRadialGradient1007"><stop stop-color="#ffffff" offset="0.1"></stop><stop stop-color="rgba(175, 175, 175, 1)" offset="0.2"></stop><stop stop-color="rgba(175, 175, 175, 0)" offset="1"></stop></radialGradient></defs></svg>